<?xml version="1.0" encoding="UTF-8"?>
<svg version="1.1" xmlns="http://www.w3.org/2000/svg" width="512" height="512">
<path d="M0 0 C5.06194079 2.39776143 6.02214649 4.03691082 9 9 C9 15.93 9 22.86 9 30 C25.5 30 42 30 59 30 C59 23.07 59 16.14 59 9 C63.75614898 1.86577653 63.75614898 1.86577653 68 0 C73.54808604 -0.82885269 78.47140883 -0.7240695 83.5625 1.6875 C86 4 86 4 89 9 C89 15.93 89 22.86 89 30 C107.15 30 125.3 30 144 30 C144 23.07 144 16.14 144 9 C148.75614898 1.86577653 148.75614898 1.86577653 153 0 C158.54808604 -0.82885269 163.47140883 -0.7240695 168.5625 1.6875 C171 4 171 4 174 9 C174 15.93 174 22.86 174 30 C192.15 30 210.3 30 229 30 C229 23.07 229 16.14 229 9 C233.75614898 1.86577653 233.75614898 1.86577653 238 0 C243.54808604 -0.82885269 248.47140883 -0.7240695 253.5625 1.6875 C256 4 256 4 259 9 C259 15.93 259 22.86 259 30 C275.5 30 292 30 309 30 C309 23.07 309 16.14 309 9 C313.75614898 1.86577653 313.75614898 1.86577653 318 0 C323.54808604 -0.82885269 328.47140883 -0.7240695 333.5625 1.6875 C336.70555257 4.66937039 338.79011184 6.90822235 339.23803711 11.37231445 C339.29518868 14.19153806 339.26132985 16.99371402 339.1875 19.8125 C339.17396484 20.79154297 339.16042969 21.77058594 339.14648438 22.77929688 C339.11125312 25.18676625 339.06199265 27.59309564 339 30 C339.87624023 29.97905273 340.75248047 29.95810547 341.65527344 29.93652344 C344.96544302 29.86757975 348.2748293 29.81783436 351.58544922 29.78027344 C353.00712262 29.76038989 354.42871683 29.73327273 355.85009766 29.69824219 C372.75167362 29.29269979 386.2240991 33.88525823 398.64453125 45.5546875 C406.98823449 54.21664145 414.10643936 66.24936326 414.13422108 78.58165741 C414.14090784 79.96192777 414.14090784 79.96192777 414.14772969 81.37008238 C414.14745315 82.8811427 414.14745315 82.8811427 414.14717102 84.42272949 C414.15084771 85.49573822 414.1545244 86.56874696 414.1583125 87.67427111 C414.16935585 91.28220117 414.17319433 94.89010243 414.17700195 98.49804688 C414.18326618 101.08011975 414.18991295 103.66219172 414.19691467 106.2442627 C414.21666558 114.00245019 414.22674446 121.76063897 414.23564246 129.51884532 C414.24002842 133.17532991 414.24539451 136.83181306 414.25063133 140.48829651 C414.26764375 152.64911346 414.28213622 164.80992951 414.28938007 176.97075653 C414.29128987 180.12568666 414.29321022 183.28061678 414.29516602 186.43554688 C414.29564976 187.21965944 414.2961335 188.00377201 414.2966319 188.81164557 C414.30492583 201.50358766 414.33025189 214.19543531 414.36274669 226.88733619 C414.39586086 239.92786576 414.41383285 252.96834742 414.41702431 266.00891924 C414.4191856 273.32659798 414.42787792 280.64413907 414.45348549 287.96177673 C414.47753466 294.84989043 414.48099085 301.73775321 414.47072411 308.62590027 C414.47022912 311.1493614 414.4765384 313.67283478 414.49028015 316.19625854 C414.50803867 319.65160014 414.50087243 323.10605817 414.48774719 326.56140137 C414.50420106 328.04569303 414.50420106 328.04569303 414.52098733 329.55997038 C414.39422398 343.46174827 408.31424612 356.58895355 398.9375 366.75 C387.25277669 377.71689048 373.58644759 382.45310922 357.75732422 382.43237305 C356.57568192 382.4425647 355.39403961 382.45275635 354.17658997 382.46325684 C350.30257341 382.49325432 346.42880467 382.50263279 342.5546875 382.51171875 C339.85610828 382.52694538 337.15756592 382.54658304 334.45901489 382.56611633 C328.10220772 382.60962119 321.74542586 382.63826606 315.38851559 382.66143972 C308.14529925 382.6885778 300.90221404 382.7324836 293.65909171 382.77772844 C278.77279869 382.870345 263.88647174 382.94213037 249 383 C249.41572266 384.41152344 249.41572266 384.41152344 249.83984375 385.8515625 C250.20207031 387.09679687 250.56429688 388.34203125 250.9375 389.625 C251.29714844 390.85476563 251.65679687 392.08453125 252.02734375 393.3515625 C258.27548764 416.78837532 254.42022251 442.81876127 243 464 C229.19026031 487.74728565 208.47957981 502.52787113 182.5234375 510.08984375 C158.51047081 516.29274978 131.59029195 512.39232653 110.21826172 499.96386719 C86.29409205 485.16303412 71.93522594 463.8479562 65 437 C61.57641418 419.07243914 63.26500937 400.20497188 69 383 C68.38745991 382.99853344 67.77491982 382.99706688 67.1438179 382.99555588 C52.1932111 382.95839602 37.24283796 382.89926058 22.29242325 382.81609726 C15.06229564 382.77640089 7.83227539 382.74396095 0.60205078 382.72900391 C-5.7047399 382.7159383 -12.01129343 382.6888498 -18.31795049 382.64538693 C-21.65295463 382.62288086 -24.98741178 382.60917551 -28.32253265 382.60811615 C-32.05880333 382.60573673 -35.79416119 382.57857599 -39.53027344 382.54589844 C-40.61856949 382.5509288 -41.70686554 382.55595917 -42.82814026 382.56114197 C-57.08509738 382.36942275 -70.27970233 376.59962718 -80.75 366.9375 C-91.31780577 355.67798331 -96.48072688 342.18120695 -96.38768005 326.85574341 C-96.39306559 325.77760813 -96.39845113 324.69947284 -96.40399987 323.5886668 C-96.41823362 319.99925982 -96.41118686 316.41022402 -96.40405273 312.82080078 C-96.40975869 310.23784083 -96.41672382 307.6548834 -96.42485046 305.07192993 C-96.4419953 298.79803899 -96.44288746 292.52424839 -96.43763756 286.25034012 C-96.43358642 281.14769645 -96.43505059 276.0450823 -96.44038582 270.94244003 C-96.44113424 270.21456424 -96.44188266 269.48668845 -96.44265376 268.73675581 C-96.44418534 267.25779192 -96.44572368 265.77882804 -96.44726873 264.29986416 C-96.46097825 250.44855667 -96.45556707 236.59730575 -96.44408352 222.74599956 C-96.43415359 210.09322701 -96.44709038 197.44060074 -96.47101771 184.78785075 C-96.49544073 171.77423822 -96.50500867 158.76069373 -96.49836498 145.74705875 C-96.49487976 138.44960645 -96.49705856 131.15226659 -96.51461601 123.8548317 C-96.53092579 116.99123736 -96.52610662 110.12792618 -96.50731087 103.26433945 C-96.50363062 100.75055748 -96.50671688 98.23675476 -96.51719666 95.72299194 C-96.53044636 92.28108377 -96.51882263 88.84009337 -96.50120544 85.39822388 C-96.51081045 84.41278882 -96.52041546 83.42735377 -96.53031152 82.41205704 C-96.38489242 68.52338692 -90.30566009 55.40174225 -80.9375 45.25 C-67.82193998 32.94017404 -53.347849 29.49346199 -35.875 29.8125 C-34.42709734 29.82758232 -32.97917938 29.84126442 -31.53125 29.85351562 C-28.02051006 29.88622151 -24.51035601 29.93780489 -21 30 C-21.0314209 29.09290283 -21.0314209 29.09290283 -21.06347656 28.16748047 C-21.14708945 25.40349229 -21.19880054 22.63977087 -21.25 19.875 C-21.28351563 18.92367188 -21.31703125 17.97234375 -21.3515625 16.9921875 C-21.43267329 11.15221087 -21.12496676 7.50379023 -17 3 C-11.77740143 -1.05630398 -6.34659858 -0.77397544 0 0 Z " fill="#F6EBD8" transform="translate(97,0)"/>
<path d="M0 0 C84.15 0 168.3 0 255 0 C255 15.51 255 31.02 255 47 C248.565 47.495 248.565 47.495 242 48 C236.59739383 50.24415949 233.51218518 52.67416742 231 58 C230.18820962 62.66151794 230.53906885 66.02282595 232.5625 70.3125 C239.45698289 77.91410934 244.09616901 77.16124377 255 78 C255 90.87 255 103.74 255 117 C248.565 117.495 248.565 117.495 242 118 C236.59739383 120.24415949 233.51218518 122.67416742 231 128 C230.18820962 132.66151794 230.53906885 136.02282595 232.5625 140.3125 C239.45698289 147.91410934 244.09616901 147.16124377 255 148 C255 160.87 255 173.74 255 187 C246.585 187.99 246.585 187.99 238 189 C228.75735616 191.12727517 220.3977723 193.61053483 212 198 C211.04738281 198.49113281 210.09476563 198.98226562 209.11328125 199.48828125 C191.27495401 209.2585546 176.34389864 224.82503747 168.39208984 243.69628906 C167.9327002 244.78651367 167.47331055 245.87673828 167 247 C151.17008458 247.09371092 135.34024485 247.1641096 119.51012039 247.20724869 C112.15883322 247.22781713 104.80771905 247.25582724 97.45654297 247.30175781 C91.04439919 247.34180193 84.63238079 247.36747431 78.22011542 247.37635398 C74.82920531 247.38153927 71.43865367 247.39360455 68.04785919 247.42292023 C64.24946708 247.45213529 60.45180745 247.45594828 56.65332031 247.45410156 C54.99282402 247.47567322 54.99282402 247.47567322 53.29878235 247.49768066 C38.97974729 247.42279698 25.76204896 241.63815582 15.25 231.9375 C1.76500648 217.56985235 -0.45240301 202.11664759 -0.34057617 183.22998047 C-0.33965617 181.19626444 -0.34005934 179.16254746 -0.34167194 177.12883186 C-0.34234673 171.70312016 -0.32501182 166.27760862 -0.30384064 160.85194397 C-0.28670307 155.75293374 -0.28594842 150.65397116 -0.28381348 145.55493164 C-0.26809753 130.66159478 -0.22621384 115.76829483 -0.1875 100.875 C-0.125625 67.58625 -0.06375 34.2975 0 0 Z " fill="#FEF4F4" transform="translate(1,135)"/>
<path d="M0 0 C5.06194079 2.39776143 6.02214649 4.03691082 9 9 C9 15.93 9 22.86 9 30 C25.5 30 42 30 59 30 C59 23.07 59 16.14 59 9 C63.75614898 1.86577653 63.75614898 1.86577653 68 0 C73.54808604 -0.82885269 78.47140883 -0.7240695 83.5625 1.6875 C86 4 86 4 89 9 C89 15.93 89 22.86 89 30 C107.15 30 125.3 30 144 30 C144 23.07 144 16.14 144 9 C148.75614898 1.86577653 148.75614898 1.86577653 153 0 C158.54808604 -0.82885269 163.47140883 -0.7240695 168.5625 1.6875 C171 4 171 4 174 9 C174 15.93 174 22.86 174 30 C192.15 30 210.3 30 229 30 C229 23.07 229 16.14 229 9 C233.75614898 1.86577653 233.75614898 1.86577653 238 0 C243.54808604 -0.82885269 248.47140883 -0.7240695 253.5625 1.6875 C256 4 256 4 259 9 C259 15.93 259 22.86 259 30 C275.5 30 292 30 309 30 C309 23.07 309 16.14 309 9 C313.75614898 1.86577653 313.75614898 1.86577653 318 0 C323.54808604 -0.82885269 328.47140883 -0.7240695 333.5625 1.6875 C336.70555257 4.66937039 338.79011184 6.90822235 339.23803711 11.37231445 C339.29518868 14.19153806 339.26132985 16.99371402 339.1875 19.8125 C339.17396484 20.79154297 339.16042969 21.77058594 339.14648438 22.77929688 C339.11125312 25.18676625 339.06199265 27.59309564 339 30 C339.87624023 29.97905273 340.75248047 29.95810547 341.65527344 29.93652344 C344.96544302 29.86757975 348.2748293 29.81783436 351.58544922 29.78027344 C353.00712262 29.76038989 354.42871683 29.73327273 355.85009766 29.69824219 C372.75167362 29.29269979 386.2240991 33.88525823 398.64453125 45.5546875 C422.40151043 70.21782011 414 101.4496449 414 135 C245.7 135 77.4 135 -96 135 C-96 61.57237454 -96 61.57237454 -80.9375 45.25 C-67.82193998 32.94017404 -53.347849 29.49346199 -35.875 29.8125 C-34.42709734 29.82758232 -32.97917938 29.84126442 -31.53125 29.85351562 C-28.02051006 29.88622151 -24.51035601 29.93780489 -21 30 C-21.0314209 29.09290283 -21.0314209 29.09290283 -21.06347656 28.16748047 C-21.14708945 25.40349229 -21.19880054 22.63977087 -21.25 19.875 C-21.28351563 18.92367188 -21.31703125 17.97234375 -21.3515625 16.9921875 C-21.43267329 11.15221087 -21.12496676 7.50379023 -17 3 C-11.77740143 -1.05630398 -6.34659858 -0.77397544 0 0 Z " fill="#FE7B48" transform="translate(97,0)"/>
<path d="M0 0 C18.34590401 15.29811673 31.16940675 36.22919813 34.6875 60 C36.53958688 91.19936139 30.57942004 115.80041587 9.9375 139.6875 C-5.14440141 155.65111257 -27.01781294 167.85461 -49.29418945 169.17700195 C-80.83794018 169.79425318 -105.18559719 163.9147701 -128.6875 141.7109375 C-148.95339415 120.78157657 -155.90602292 95.68210905 -155.58203125 67.08984375 C-154.93680935 42.98142932 -142.72628956 21.19753968 -125.78759766 4.38427734 C-121.62430017 0.47730999 -117.02881408 -2.8026071 -112.3125 -6 C-111.11560547 -6.82951172 -111.11560547 -6.82951172 -109.89453125 -7.67578125 C-75.78440476 -29.78737078 -31.11529273 -24.15342358 0 0 Z " fill="#FF7C48" transform="translate(316.3125,343)"/>
<path d="M0 0 C5.06194079 2.39776143 6.02214649 4.03691082 9 9 C9 15.93 9 22.86 9 30 C25.5 30 42 30 59 30 C59 23.07 59 16.14 59 9 C63.75614898 1.86577653 63.75614898 1.86577653 68 0 C73.54808604 -0.82885269 78.47140883 -0.7240695 83.5625 1.6875 C86.70555257 4.66937039 88.79011184 6.90822235 89.23803711 11.37231445 C89.29518868 14.19153806 89.26132985 16.99371402 89.1875 19.8125 C89.17396484 20.79154297 89.16042969 21.77058594 89.14648438 22.77929688 C89.11125312 25.18676625 89.06199265 27.59309564 89 30 C89.87624023 29.97905273 90.75248047 29.95810547 91.65527344 29.93652344 C94.96544302 29.86757975 98.2748293 29.81783436 101.58544922 29.78027344 C103.00712262 29.76038989 104.42871683 29.73327273 105.85009766 29.69824219 C122.75167362 29.29269979 136.2240991 33.88525823 148.64453125 45.5546875 C172.40151043 70.21782011 164 101.4496449 164 135 C79.85 135 -4.3 135 -91 135 C-91 120.15 -91 105.3 -91 90 C-88.03 89.01 -85.06 88.02 -82 87 C-78.01107971 83.01107971 -76.89426725 79.69570885 -76.79467773 74.16137695 C-76.77449585 73.16690552 -76.75431396 72.17243408 -76.73352051 71.14782715 C-76.71704468 70.105177 -76.70056885 69.06252686 -76.68359375 67.98828125 C-76.66494263 67.02805054 -76.6462915 66.06781982 -76.6270752 65.07849121 C-76.55875247 61.48992149 -76.49861974 57.90119962 -76.4375 54.3125 C-76.293125 46.289375 -76.14875 38.26625 -76 30 C-57.85 30 -39.7 30 -21 30 C-21 23.07 -21 16.14 -21 9 C-14.99896377 -0.00155435 -10.46374405 -1.27606635 0 0 Z " fill="#FE3939" transform="translate(347,0)"/>
<path d="M0 0 C27.2540196 0 49.26276589 10.09601738 69.0625 28.6875 C88.98090479 49.28721843 95.57807866 73.91201142 95.2734375 101.91015625 C94.61273549 126.71918954 82.65922699 148.90057559 65 166 C46.41130618 182.47968634 24.74230069 190 0 190 C0 171.85 0 153.7 0 135 C2.97 134.01 5.94 133.02 9 132 C13.67690841 127.32309159 14.14986169 123.23786791 14.5625 116.8125 C14.64628906 115.54019531 14.73007812 114.26789063 14.81640625 112.95703125 C14.87699219 111.98121094 14.93757813 111.00539063 15 110 C15.94101562 109.96261719 16.88203125 109.92523438 17.8515625 109.88671875 C19.09679687 109.82097656 20.34203125 109.75523437 21.625 109.6875 C22.85476563 109.62949219 24.08453125 109.57148438 25.3515625 109.51171875 C30.04597239 108.85329509 33.5954378 107.54986173 36.8125 104 C39.46456786 99.5333594 39.61296896 95.05051886 39 90 C36.572814 84.95892139 34.08691678 83.11754908 29 81 C25.3491481 80.43084828 25.3491481 80.43084828 21.625 80.3125 C20.37976563 80.24675781 19.13453125 80.18101562 17.8515625 80.11328125 C16.91054688 80.07589844 15.96953125 80.03851563 15 80 C14.97421875 78.98679687 14.9484375 77.97359375 14.921875 76.9296875 C14.86555819 75.57808403 14.80821167 74.22652319 14.75 72.875 C14.73582031 72.20984375 14.72164063 71.5446875 14.70703125 70.859375 C14.46052928 65.83073483 13.16645553 62.87717456 10 59 C6.60821712 56.95079785 3.85857346 55.96464337 0 55 C0 36.85 0 18.7 0 0 Z " fill="#FE3939" transform="translate(256,322)"/>
<path d="M0 0 C3.5677811 2.35149209 5.84221079 4.99692157 7.75 8.8125 C7.8216735 11.36407655 7.84308442 13.88722971 7.8125 16.4375 C7.80798828 17.14390625 7.80347656 17.8503125 7.79882812 18.578125 C7.78703875 20.32295275 7.76910324 22.067737 7.75 23.8125 C9.16152344 23.76029297 9.16152344 23.76029297 10.6015625 23.70703125 C12.46941406 23.66642578 12.46941406 23.66642578 14.375 23.625 C15.60476563 23.59019531 16.83453125 23.55539062 18.1015625 23.51953125 C23.33867273 23.94007008 26.55288878 25.48597136 30.0625 29.375 C33.18284939 33.88217134 33.24965704 37.42528863 32.75 42.8125 C31.05835942 47.53128688 28.88951382 50.01832817 24.75 52.8125 C21.18954823 53.99931726 18.31191663 53.90939832 14.5625 53.875 C13.29019531 53.86597656 12.01789063 53.85695313 10.70703125 53.84765625 C9.24330078 53.83025391 9.24330078 53.83025391 7.75 53.8125 C7.80220703 55.22402344 7.80220703 55.22402344 7.85546875 56.6640625 C7.88253906 57.90929687 7.90960938 59.15453125 7.9375 60.4375 C7.98970703 62.28214844 7.98970703 62.28214844 8.04296875 64.1640625 C7.62499436 69.36923693 6.07050577 72.59103217 2.25 76.125 C-2.03756121 79.01910382 -6.19559487 79.45359183 -11.25 78.8125 C-15.52739329 77.45856704 -18.37264144 75.21685298 -20.6875 71.375 C-23.17090065 65.80584195 -22.57719306 59.77468471 -22.25 53.8125 C-23.17941406 53.85890625 -24.10882813 53.9053125 -25.06640625 53.953125 C-38.05225989 54.33227401 -38.05225989 54.33227401 -43.25 49.8125 C-46.65247316 45.10216929 -48.09923253 40.65097367 -47.25 34.8125 C-45.61152328 30.21700909 -43.03061911 26.7465835 -38.59765625 24.45703125 C-33.30972387 23.00526945 -27.67846345 23.54145328 -22.25 23.8125 C-22.29640625 22.88308594 -22.3428125 21.95367187 -22.390625 20.99609375 C-22.7660123 8.13907861 -22.7660123 8.13907861 -18.25 2.8125 C-12.64219551 -1.91509214 -6.90122913 -2.52160295 0 0 Z " fill="#F7EAD8" transform="translate(263.25,378.1875)"/>
<path d="M0 0 C4.60367985 2.18069046 6.77412982 4.47886676 9 9 C9.38095093 12.21836853 9.38095093 12.21836853 9.38818359 15.89819336 C9.39344055 16.57203568 9.39869751 17.24587799 9.40411377 17.94013977 C9.41726531 20.15694697 9.40859252 22.37302985 9.3984375 24.58984375 C9.40045988 26.13774248 9.40337269 27.68564029 9.40713501 29.23353577 C9.41155198 32.47406099 9.40514859 35.71433771 9.39111328 38.95483398 C9.37403587 43.09864854 9.38385704 47.24187949 9.40183067 51.38567257 C9.41269783 54.58138891 9.40920854 57.77696809 9.4014473 60.97268867 C9.39945263 62.50003695 9.40187868 64.02739787 9.40888596 65.55473137 C9.4165475 67.6942912 9.40483147 69.83292112 9.38818359 71.97241211 C9.38579681 73.1875499 9.38341003 74.40268768 9.38095093 75.65464783 C8.81137958 80.65638588 7.18324638 83.9054971 3.5 87.3125 C-0.75730406 90.18618024 -4.97410482 90.77803004 -10 90 C-14.62404446 88.16519232 -17.33058367 86.33958673 -19.58485413 81.82850647 C-21.09737389 78.15802966 -21.38597222 74.95591017 -21.40405273 70.96655273 C-21.41091599 70.30217194 -21.41777924 69.63779114 -21.42485046 68.95327759 C-21.44299775 66.7798259 -21.43929985 64.60710415 -21.43359375 62.43359375 C-21.43816032 60.91097278 -21.44346731 59.38835387 -21.44947815 57.86573792 C-21.45838467 54.68425081 -21.45601314 51.50301508 -21.44604492 48.3215332 C-21.43453884 44.25387944 -21.45480338 40.18709172 -21.48396206 36.11955166 C-21.5023435 32.97872963 -21.50202813 29.83811462 -21.49632454 26.69725227 C-21.49617166 25.19780319 -21.50218802 23.69833977 -21.51461601 22.19894218 C-21.52956813 20.10009827 -21.51882228 18.00284824 -21.50170898 15.90405273 C-21.50154282 14.71271225 -21.50137665 13.52137177 -21.50120544 12.29393005 C-20.75171453 7.36826401 -18.52504002 4.18447279 -14.62109375 1.15234375 C-9.87170897 -0.93568681 -5.07751849 -0.61920957 0 0 Z " fill="#07485E" transform="translate(262,0)"/>
<path d="M0 0 C4.60548436 2.18154522 6.76752505 4.48128213 9 9 C9.38768005 12.16694641 9.38768005 12.16694641 9.40405273 15.7746582 C9.41091599 16.43553436 9.41777924 17.09641052 9.42485046 17.77731323 C9.44308148 19.9520241 9.43928539 22.12601068 9.43359375 24.30078125 C9.43815857 25.82146945 9.44346504 27.34215558 9.44947815 28.86283875 C9.45840288 32.047886 9.45599498 35.23268246 9.44604492 38.41772461 C9.43457772 42.48299882 9.45473446 46.54740148 9.48396206 50.61256123 C9.50238649 53.75346812 9.5020189 56.89416877 9.49632454 60.0351162 C9.49617197 61.53291226 9.5021629 63.03072288 9.51461601 64.52846718 C9.57186653 72.54522081 9.58467375 79.14229326 5 86 C1.62432553 88.9511051 -2.18264979 89.88528418 -6.5625 90.5 C-10.73191344 89.89353986 -13.83196023 88.74847819 -17 86 C-22.04732707 78.62287574 -21.58521146 70.94688381 -21.53125 62.3359375 C-21.53394892 60.81474561 -21.53783466 59.29355541 -21.54284668 57.77236938 C-21.54871945 54.59677576 -21.54024896 51.42163449 -21.52148438 48.24609375 C-21.49865638 44.18627765 -21.51185527 40.12751724 -21.53577423 36.06773949 C-21.55025961 32.93118395 -21.5456145 29.79487696 -21.53526306 26.65831375 C-21.53260533 25.16166685 -21.53583183 23.66499698 -21.54518127 22.16837692 C-21.55539752 20.07437448 -21.53978096 17.98206092 -21.51757812 15.88818359 C-21.51439575 14.69985931 -21.51121338 13.51153503 -21.50793457 12.28720093 C-20.74797756 7.36898599 -18.52107261 4.18139137 -14.62109375 1.15234375 C-9.87170897 -0.93568681 -5.07751849 -0.61920957 0 0 Z " fill="#07485D" transform="translate(427,0)"/>
<path d="M0 0 C4.60548436 2.18154522 6.76752505 4.48128213 9 9 C9.38768005 12.16694641 9.38768005 12.16694641 9.40405273 15.7746582 C9.41091599 16.43553436 9.41777924 17.09641052 9.42485046 17.77731323 C9.44308148 19.9520241 9.43928539 22.12601068 9.43359375 24.30078125 C9.43815857 25.82146945 9.44346504 27.34215558 9.44947815 28.86283875 C9.45840288 32.047886 9.45599498 35.23268246 9.44604492 38.41772461 C9.43457772 42.48299882 9.45473446 46.54740148 9.48396206 50.61256123 C9.50238649 53.75346812 9.5020189 56.89416877 9.49632454 60.0351162 C9.49617197 61.53291226 9.5021629 63.03072288 9.51461601 64.52846718 C9.57186653 72.54522081 9.58467375 79.14229326 5 86 C1.62432553 88.9511051 -2.18264979 89.88528418 -6.5625 90.5 C-10.73191344 89.89353986 -13.83196023 88.74847819 -17 86 C-22.04732707 78.62287574 -21.58521146 70.94688381 -21.53125 62.3359375 C-21.53394892 60.81474561 -21.53783466 59.29355541 -21.54284668 57.77236938 C-21.54871945 54.59677576 -21.54024896 51.42163449 -21.52148438 48.24609375 C-21.49865638 44.18627765 -21.51185527 40.12751724 -21.53577423 36.06773949 C-21.55025961 32.93118395 -21.5456145 29.79487696 -21.53526306 26.65831375 C-21.53260533 25.16166685 -21.53583183 23.66499698 -21.54518127 22.16837692 C-21.55539752 20.07437448 -21.53978096 17.98206092 -21.51757812 15.88818359 C-21.51439575 14.69985931 -21.51121338 13.51153503 -21.50793457 12.28720093 C-20.74797756 7.36898599 -18.52107261 4.18139137 -14.62109375 1.15234375 C-9.87170897 -0.93568681 -5.07751849 -0.61920957 0 0 Z " fill="#07485D" transform="translate(347,0)"/>
<path d="M0 0 C4.60548436 2.18154522 6.76752505 4.48128213 9 9 C9.38768005 12.16694641 9.38768005 12.16694641 9.40405273 15.7746582 C9.41091599 16.43553436 9.41777924 17.09641052 9.42485046 17.77731323 C9.44308148 19.9520241 9.43928539 22.12601068 9.43359375 24.30078125 C9.43815857 25.82146945 9.44346504 27.34215558 9.44947815 28.86283875 C9.45840288 32.047886 9.45599498 35.23268246 9.44604492 38.41772461 C9.43457772 42.48299882 9.45473446 46.54740148 9.48396206 50.61256123 C9.50238649 53.75346812 9.5020189 56.89416877 9.49632454 60.0351162 C9.49617197 61.53291226 9.5021629 63.03072288 9.51461601 64.52846718 C9.57186653 72.54522081 9.58467375 79.14229326 5 86 C1.65326303 88.92580717 -2.17055449 89.86669626 -6.5 90.5625 C-11.07143007 89.82780588 -14.68235259 88.28158603 -18 85 C-20.44937551 80.10527598 -21.37889807 76.51677927 -21.40405273 70.96655273 C-21.41091599 70.30217194 -21.41777924 69.63779114 -21.42485046 68.95327759 C-21.44299775 66.7798259 -21.43929985 64.60710415 -21.43359375 62.43359375 C-21.43816032 60.91097278 -21.44346731 59.38835387 -21.44947815 57.86573792 C-21.45838467 54.68425081 -21.45601314 51.50301508 -21.44604492 48.3215332 C-21.43453884 44.25387944 -21.45480338 40.18709172 -21.48396206 36.11955166 C-21.5023435 32.97872963 -21.50202813 29.83811462 -21.49632454 26.69725227 C-21.49617166 25.19780319 -21.50218802 23.69833977 -21.51461601 22.19894218 C-21.52956813 20.10009827 -21.51882228 18.00284824 -21.50170898 15.90405273 C-21.50154282 14.71271225 -21.50137665 13.52137177 -21.50120544 12.29393005 C-20.75171453 7.36826401 -18.52504002 4.18447279 -14.62109375 1.15234375 C-9.87170897 -0.93568681 -5.07751849 -0.61920957 0 0 Z " fill="#09607C" transform="translate(177,0)"/>
<path d="M0 0 C4.60548436 2.18154522 6.76752505 4.48128213 9 9 C9.38768005 12.16694641 9.38768005 12.16694641 9.40405273 15.7746582 C9.41091599 16.43553436 9.41777924 17.09641052 9.42485046 17.77731323 C9.44308148 19.9520241 9.43928539 22.12601068 9.43359375 24.30078125 C9.43815857 25.82146945 9.44346504 27.34215558 9.44947815 28.86283875 C9.45840288 32.047886 9.45599498 35.23268246 9.44604492 38.41772461 C9.43457772 42.48299882 9.45473446 46.54740148 9.48396206 50.61256123 C9.50238649 53.75346812 9.5020189 56.89416877 9.49632454 60.0351162 C9.49617197 61.53291226 9.5021629 63.03072288 9.51461601 64.52846718 C9.57186653 72.54522081 9.58467375 79.14229326 5 86 C1.65326303 88.92580717 -2.17055449 89.86669626 -6.5 90.5625 C-11.07143007 89.82780588 -14.68235259 88.28158603 -18 85 C-20.44937551 80.10527598 -21.37889807 76.51677927 -21.40405273 70.96655273 C-21.41091599 70.30217194 -21.41777924 69.63779114 -21.42485046 68.95327759 C-21.44299775 66.7798259 -21.43929985 64.60710415 -21.43359375 62.43359375 C-21.43816032 60.91097278 -21.44346731 59.38835387 -21.44947815 57.86573792 C-21.45838467 54.68425081 -21.45601314 51.50301508 -21.44604492 48.3215332 C-21.43453884 44.25387944 -21.45480338 40.18709172 -21.48396206 36.11955166 C-21.5023435 32.97872963 -21.50202813 29.83811462 -21.49632454 26.69725227 C-21.49617166 25.19780319 -21.50218802 23.69833977 -21.51461601 22.19894218 C-21.52956813 20.10009827 -21.51882228 18.00284824 -21.50170898 15.90405273 C-21.50154282 14.71271225 -21.50137665 13.52137177 -21.50120544 12.29393005 C-20.75171453 7.36826401 -18.52504002 4.18447279 -14.62109375 1.15234375 C-9.87170897 -0.93568681 -5.07751849 -0.61920957 0 0 Z " fill="#09607C" transform="translate(97,0)"/>
<path d="M0 0 C0 26.4 0 52.8 0 80 C-8.4 78.8 -8.4 78.8 -12 75 C-15.90540288 68.67055395 -15.29470756 62.25853798 -15 55 C-15.92941406 55.04640625 -16.85882813 55.0928125 -17.81640625 55.140625 C-30.80225989 55.51977401 -30.80225989 55.51977401 -36 51 C-39.40247316 46.28966929 -40.84923253 41.83847367 -40 36 C-38.36152328 31.40450909 -35.78061911 27.9340835 -31.34765625 25.64453125 C-26.05972387 24.19276945 -20.42846345 24.72895328 -15 25 C-15.04640625 24.07058594 -15.0928125 23.14117187 -15.140625 22.18359375 C-15.5160123 9.32657861 -15.5160123 9.32657861 -11 4 C-7.40129974 1.21956569 -4.65030819 0 0 0 Z " fill="#FFF3F3" transform="translate(256,377)"/>
<path d="M0 0 C1.17626953 -0.020625 2.35253906 -0.04125 3.56445312 -0.0625 C10.38014409 -0.0933228 15.6069609 -0.09240348 20.83203125 4.78515625 C24.95885272 10.18176894 26.0077825 13.49406216 25.1875 20.25 C22.48570537 25.5535228 18.89253105 29.34832298 13.1875 31.25 C8.94225878 31.53721537 4.6913602 31.52774624 0.4375 31.5625 C-1.31433594 31.60600586 -1.31433594 31.60600586 -3.1015625 31.65039062 C-9.91822958 31.70062683 -14.32212058 31.42481759 -19.8125 27.25 C-24.01956144 22.60008999 -25.17276528 19.71972087 -25.09375 13.56640625 C-24.51373234 8.78931638 -21.68807723 6.04015506 -18.25 2.9375 C-12.72717127 -0.88599681 -6.46532215 0.02806434 0 0 Z " fill="#126580" transform="translate(255.8125,251.75)"/>
<path d="M0 0 C1.17626953 -0.020625 2.35253906 -0.04125 3.56445312 -0.0625 C10.38014409 -0.0933228 15.6069609 -0.09240348 20.83203125 4.78515625 C24.95885272 10.18176894 26.0077825 13.49406216 25.1875 20.25 C22.48570537 25.5535228 18.89253105 29.34832298 13.1875 31.25 C8.94225878 31.53721537 4.6913602 31.52774624 0.4375 31.5625 C-1.31433594 31.60600586 -1.31433594 31.60600586 -3.1015625 31.65039062 C-9.91822958 31.70062683 -14.32212058 31.42481759 -19.8125 27.25 C-24.01956144 22.60008999 -25.17276528 19.71972087 -25.09375 13.56640625 C-24.51373234 8.78931638 -21.68807723 6.04015506 -18.25 2.9375 C-12.72717127 -0.88599681 -6.46532215 0.02806434 0 0 Z " fill="#126580" transform="translate(255.8125,181.75)"/>
<path d="M0 0 C1.00015892 -0.00574036 1.00015892 -0.00574036 2.02052307 -0.01159668 C3.42491168 -0.01430756 4.82935148 -0.00700396 6.23364258 0.00976562 C8.36981229 0.03115893 10.50260699 0.00995956 12.63867188 -0.015625 C14.00912193 -0.01298091 15.3795699 -0.00785424 16.75 0 C17.98548584 0.00451172 19.22097168 0.00902344 20.49389648 0.01367188 C25.7762536 0.80671749 28.83800151 3.28266042 32.31640625 7.21875 C34.42205937 11.5110429 34.75195695 14.83681054 33.94140625 19.53125 C31.41070257 25.01444132 27.43076838 28.22168177 21.94140625 30.53125 C17.56769691 31.21677313 13.29725357 31.18605878 8.87890625 31.09375 C7.73357422 31.10470703 6.58824219 31.11566406 5.40820312 31.12695312 C-1.28031628 31.06892664 -5.65943158 30.57876497 -11.05859375 26.53125 C-15.26565519 21.88133999 -16.41885903 19.00097087 -16.33984375 12.84765625 C-15.7792807 8.23079665 -13.07509117 5.51609802 -9.85522461 2.39648438 C-6.34280542 0.05384949 -4.19817015 0.01534479 0 0 Z " fill="#0B4B60" transform="translate(327.05859375,252.46875)"/>
<path d="M0 0 C1.00015892 -0.00574036 1.00015892 -0.00574036 2.02052307 -0.01159668 C3.42491168 -0.01430756 4.82935148 -0.00700396 6.23364258 0.00976562 C8.36981229 0.03115893 10.50260699 0.00995956 12.63867188 -0.015625 C14.00912193 -0.01298091 15.3795699 -0.00785424 16.75 0 C17.98548584 0.00451172 19.22097168 0.00902344 20.49389648 0.01367188 C25.7762536 0.80671749 28.83800151 3.28266042 32.31640625 7.21875 C34.42205937 11.5110429 34.75195695 14.83681054 33.94140625 19.53125 C31.41070257 25.01444132 27.43076838 28.22168177 21.94140625 30.53125 C17.56769691 31.21677313 13.29725357 31.18605878 8.87890625 31.09375 C7.73357422 31.10470703 6.58824219 31.11566406 5.40820312 31.12695312 C-1.28031628 31.06892664 -5.65943158 30.57876497 -11.05859375 26.53125 C-15.26565519 21.88133999 -16.41885903 19.00097087 -16.33984375 12.84765625 C-15.7792807 8.23079665 -13.07509117 5.51609802 -9.85522461 2.39648438 C-6.34280542 0.05384949 -4.19817015 0.01534479 0 0 Z " fill="#0D627F" transform="translate(167.05859375,252.46875)"/>
<path d="M0 0 C1.00015892 -0.00574036 1.00015892 -0.00574036 2.02052307 -0.01159668 C3.42491168 -0.01430756 4.82935148 -0.00700396 6.23364258 0.00976562 C8.36981229 0.03115893 10.50260699 0.00995956 12.63867188 -0.015625 C14.00912193 -0.01298091 15.3795699 -0.00785424 16.75 0 C17.98548584 0.00451172 19.22097168 0.00902344 20.49389648 0.01367188 C25.7762536 0.80671749 28.83800151 3.28266042 32.31640625 7.21875 C34.42205937 11.5110429 34.75195695 14.83681054 33.94140625 19.53125 C31.41070257 25.01444132 27.43076838 28.22168177 21.94140625 30.53125 C17.56769691 31.21677313 13.29725357 31.18605878 8.87890625 31.09375 C7.73357422 31.10470703 6.58824219 31.11566406 5.40820312 31.12695312 C-1.28031628 31.06892664 -5.65943158 30.57876497 -11.05859375 26.53125 C-15.26565519 21.88133999 -16.41885903 19.00097087 -16.33984375 12.84765625 C-15.7792807 8.23079665 -13.07509117 5.51609802 -9.85522461 2.39648438 C-6.34280542 0.05384949 -4.19817015 0.01534479 0 0 Z " fill="#0D627F" transform="translate(87.05859375,252.46875)"/>
<path d="M0 0 C1.00015892 -0.00574036 1.00015892 -0.00574036 2.02052307 -0.01159668 C3.42491168 -0.01430756 4.82935148 -0.00700396 6.23364258 0.00976562 C8.36981229 0.03115893 10.50260699 0.00995956 12.63867188 -0.015625 C14.00912193 -0.01298091 15.3795699 -0.00785424 16.75 0 C17.98548584 0.00451172 19.22097168 0.00902344 20.49389648 0.01367188 C25.7762536 0.80671749 28.83800151 3.28266042 32.31640625 7.21875 C34.42205937 11.5110429 34.75195695 14.83681054 33.94140625 19.53125 C31.41070257 25.01444132 27.43076838 28.22168177 21.94140625 30.53125 C17.56769691 31.21677313 13.29725357 31.18605878 8.87890625 31.09375 C7.73357422 31.10470703 6.58824219 31.11566406 5.40820312 31.12695312 C-1.28031628 31.06892664 -5.65943158 30.57876497 -11.05859375 26.53125 C-15.26565519 21.88133999 -16.41885903 19.00097087 -16.33984375 12.84765625 C-15.7792807 8.23079665 -13.07509117 5.51609802 -9.85522461 2.39648438 C-6.34280542 0.05384949 -4.19817015 0.01534479 0 0 Z " fill="#0B4B60" transform="translate(407.05859375,182.46875)"/>
<path d="M0 0 C1.00015892 -0.00574036 1.00015892 -0.00574036 2.02052307 -0.01159668 C3.42491168 -0.01430756 4.82935148 -0.00700396 6.23364258 0.00976562 C8.36981229 0.03115893 10.50260699 0.00995956 12.63867188 -0.015625 C14.00912193 -0.01298091 15.3795699 -0.00785424 16.75 0 C17.98548584 0.00451172 19.22097168 0.00902344 20.49389648 0.01367188 C25.7762536 0.80671749 28.83800151 3.28266042 32.31640625 7.21875 C34.42205937 11.5110429 34.75195695 14.83681054 33.94140625 19.53125 C31.41070257 25.01444132 27.43076838 28.22168177 21.94140625 30.53125 C17.56769691 31.21677313 13.29725357 31.18605878 8.87890625 31.09375 C7.73357422 31.10470703 6.58824219 31.11566406 5.40820312 31.12695312 C-1.28031628 31.06892664 -5.65943158 30.57876497 -11.05859375 26.53125 C-15.26565519 21.88133999 -16.41885903 19.00097087 -16.33984375 12.84765625 C-15.7792807 8.23079665 -13.07509117 5.51609802 -9.85522461 2.39648438 C-6.34280542 0.05384949 -4.19817015 0.01534479 0 0 Z " fill="#0B4B60" transform="translate(327.05859375,182.46875)"/>
<path d="M0 0 C1.00015892 -0.00574036 1.00015892 -0.00574036 2.02052307 -0.01159668 C3.42491168 -0.01430756 4.82935148 -0.00700396 6.23364258 0.00976562 C8.36981229 0.03115893 10.50260699 0.00995956 12.63867188 -0.015625 C14.00912193 -0.01298091 15.3795699 -0.00785424 16.75 0 C17.98548584 0.00451172 19.22097168 0.00902344 20.49389648 0.01367188 C25.7762536 0.80671749 28.83800151 3.28266042 32.31640625 7.21875 C34.42205937 11.5110429 34.75195695 14.83681054 33.94140625 19.53125 C31.41070257 25.01444132 27.43076838 28.22168177 21.94140625 30.53125 C17.56769691 31.21677313 13.29725357 31.18605878 8.87890625 31.09375 C7.73357422 31.10470703 6.58824219 31.11566406 5.40820312 31.12695312 C-1.28031628 31.06892664 -5.65943158 30.57876497 -11.05859375 26.53125 C-15.26565519 21.88133999 -16.41885903 19.00097087 -16.33984375 12.84765625 C-15.7792807 8.23079665 -13.07509117 5.51609802 -9.85522461 2.39648438 C-6.34280542 0.05384949 -4.19817015 0.01534479 0 0 Z " fill="#0D627F" transform="translate(167.05859375,182.46875)"/>
<path d="M0 0 C0 29.7 0 59.4 0 90 C-5.67712142 89.0538131 -7.76786885 88.57379964 -12 85 C-14.50787669 80.12435237 -15.37889225 76.51806225 -15.40405273 70.96655273 C-15.41091599 70.30217194 -15.41777924 69.63779114 -15.42485046 68.95327759 C-15.44299775 66.7798259 -15.43929985 64.60710415 -15.43359375 62.43359375 C-15.43816032 60.91097278 -15.44346731 59.38835387 -15.44947815 57.86573792 C-15.45838467 54.68425081 -15.45601314 51.50301508 -15.44604492 48.3215332 C-15.43453884 44.25387944 -15.45480338 40.18709172 -15.48396206 36.11955166 C-15.5023435 32.97872963 -15.50202813 29.83811462 -15.49632454 26.69725227 C-15.49617166 25.19780319 -15.50218802 23.69833977 -15.51461601 22.19894218 C-15.52956813 20.10009827 -15.51882228 18.00284824 -15.50170898 15.90405273 C-15.50154282 14.71271225 -15.50137665 13.52137177 -15.50120544 12.29393005 C-14.75072851 7.36178383 -12.50666396 4.18947155 -8.625 1.125 C-6 0 -6 0 0 0 Z " fill="#095F7C" transform="translate(256,0)"/>
<path d="M0 0 C16.20535714 -0.80357143 16.20535714 -0.80357143 20.375 2.75 C24.4069272 7.01909938 25.45818167 10.99782417 25.31640625 16.75390625 C24.67597268 21.30019394 21.98776782 23.99952193 18.875 27.15234375 C15.01270024 29.63450107 12.15651575 29.45605887 7.6875 29.25 C5.150625 29.1675 2.61375 29.085 0 29 C0 19.43 0 9.86 0 0 Z " fill="#08485E" transform="translate(256,253)"/>
<path d="M0 0 C16.20535714 -0.80357143 16.20535714 -0.80357143 20.375 2.75 C24.4069272 7.01909938 25.45818167 10.99782417 25.31640625 16.75390625 C24.67597268 21.30019394 21.98776782 23.99952193 18.875 27.15234375 C15.01270024 29.63450107 12.15651575 29.45605887 7.6875 29.25 C5.150625 29.1675 2.61375 29.085 0 29 C0 19.43 0 9.86 0 0 Z " fill="#08485E" transform="translate(256,183)"/>
</svg>
