<?xml version="1.0" encoding="UTF-8"?>
<svg version="1.1" xmlns="http://www.w3.org/2000/svg" width="500" height="183">
<path d="M0 0 C165 0 330 0 500 0 C500 60.39 500 120.78 500 183 C335 183 170 183 0 183 C0 122.61 0 62.22 0 0 Z " fill="#FDFDFD" transform="translate(0,0)"/>
<path d="M0 0 C4.62 0 9.24 0 14 0 C15.88446538 8.61469889 16.97958594 17.25049223 18 26 C19.63018632 20.06146413 20.65211698 14.14448199 21.53515625 8.05078125 C21.94602341 5.35424974 22.46506312 2.67468438 23 0 C27.29 0 31.58 0 36 0 C36.12117188 1.02738281 36.24234375 2.05476563 36.3671875 3.11328125 C36.53628607 4.51304165 36.70556687 5.91278005 36.875 7.3125 C36.95363281 7.98345703 37.03226562 8.65441406 37.11328125 9.34570312 C37.84080328 15.30578743 38.91984093 21.05912514 40 27 C41.32 18.09 42.64 9.18 44 0 C47.3 0 50.6 0 54 0 C53.25493843 13.78363905 53.25493843 13.78363905 51.5390625 20.5703125 C50.55946618 24.98559448 50.0554846 29.47987716 49.46484375 33.9609375 C49 37 49 37 48 40 C42.72 40 37.44 40 32 40 C31.505 37.628125 31.01 35.25625 30.5 32.8125 C30.34337891 32.07491455 30.18675781 31.3373291 30.02539062 30.57739258 C29.29377874 26.99433304 28.82961695 23.65613624 29 20 C28.34 20 27.68 20 27 20 C26.87625 21.258125 26.7525 22.51625 26.625 23.8125 C26.02589096 29.26526052 25.02303106 34.61203641 24 40 C18.39 40 12.78 40 7 40 C4.87630438 31.50521751 3.25243904 23.00948241 1.8125 14.375 C1.63364258 13.30765625 1.45478516 12.2403125 1.27050781 11.140625 C0 3.39374695 0 3.39374695 0 0 Z " fill="#060606" transform="translate(276,69)"/>
<path d="M0 0 C4.72522871 3.03098552 8.07725917 6.0797676 9.7890625 11.5625 C11.17707685 18.40846907 11.72014775 26.39546406 8 32.5234375 C4.45022952 37.18686147 0.98539239 39.42914314 -4.75 40.8359375 C-10.80425175 41.48741543 -16.44759584 41.00621704 -21.75 37.8359375 C-26.71527017 33.47618808 -29.34731233 28.9257341 -30 22.296875 C-30.2805036 15.93294957 -29.63100241 11.00308606 -25.75 5.8359375 C-18.84931401 -1.34704928 -9.61358067 -4.069385 0 0 Z " fill="#070707" transform="translate(364.75,69.1640625)"/>
<path d="M0 0 C12 0 12 0 15.140625 3.0625 C15.88924162 4.34959524 16.59237629 5.66412124 17.25 7 C17.62511719 7.66773437 18.00023438 8.33546875 18.38671875 9.0234375 C19.29863307 10.6602068 20.15525454 12.32757464 21 14 C24.93423016 12.68858995 25.50454132 11.00101263 27.625 7.5 C30.9602649 2.0397351 30.9602649 2.0397351 32 1 C35.96 1 39.92 1 44 1 C44 14.2 44 27.4 44 41 C39.71 41 35.42 41 31 41 C30.505 31.595 30.505 31.595 30 22 C27.36 26.29 24.72 30.58 22 35 C18 34 18 34 15.859375 31.05859375 C15.14130122 29.86039541 14.44116445 28.65141964 13.75 27.4375 C12.5125 25.313125 11.275 23.18875 10 21 C9.67 27.6 9.34 34.2 9 41 C6.03 41 3.06 41 0 41 C0 27.47 0 13.94 0 0 Z " fill="#050505" transform="translate(107,68)"/>
<path d="M0 0 C4.16625 -0.0825 8.3325 -0.165 12.625 -0.25 C13.92775879 -0.28641602 15.23051758 -0.32283203 16.57275391 -0.36035156 C27.20613059 -0.46242144 27.20613059 -0.46242144 32 4 C34.27827887 6.57036591 35.84662211 8.46622105 36.1953125 11.953125 C35.84556994 17.34327502 33.86696745 20.31717386 30 24 C29.01 24 28.02 24 27 24 C27.5775 24.98742187 28.155 25.97484375 28.75 26.9921875 C29.500226 28.28632735 30.25021368 29.58060537 31 30.875 C31.3815625 31.52597656 31.763125 32.17695312 32.15625 32.84765625 C35 37.7734375 35 37.7734375 35 40 C30.38 40 25.76 40 21 40 C19.79557292 36.90755208 18.59114583 33.81510417 17.38671875 30.72265625 C16.24391139 27.69139735 16.24391139 27.69139735 13 27 C13 31.29 13 35.58 13 40 C8.71 40 4.42 40 0 40 C0 26.8 0 13.6 0 0 Z " fill="#050505" transform="translate(383,69)"/>
<path d="M0 0 C13 0 13 0 17.078125 3.6484375 C18.17922627 5.19365838 19.23650996 6.77095215 20.25 8.375 C20.80300781 9.1690625 21.35601562 9.963125 21.92578125 10.78125 C23.76982846 13.45443883 25.5468113 16.0936226 27 19 C27.33 12.73 27.66 6.46 28 0 C30.97 0 33.94 0 37 0 C37 13.2 37 26.4 37 40 C24 40 24 40 20.39453125 36.60546875 C19.48660713 35.16146208 18.62594383 33.68676335 17.8125 32.1875 C17.36326172 31.44951172 16.91402344 30.71152344 16.45117188 29.95117188 C15.62298014 28.58323186 14.81354713 27.20360956 14.03051758 25.80932617 C13.09273707 24.16282265 12.05106629 22.57659943 11 21 C10.67 27.27 10.34 33.54 10 40 C6.7 40 3.4 40 0 40 C0 26.8 0 13.6 0 0 Z " fill="#030303" transform="translate(199,69)"/>
<path d="M0 0 C3.96 0 7.92 0 12 0 C12.33 5.28 12.66 10.56 13 16 C15.64 10.72 18.28 5.44 21 0 C25.95 0 30.9 0 36 0 C33.22885499 5.70064116 30.50985421 11.02319887 26.72265625 16.11328125 C25.77242366 18.03808855 25.77242366 18.03808855 26.61328125 20.25 C28.73761007 24.4627535 30.97718395 28.60435288 33.25390625 32.73632812 C36 37.79095124 36 37.79095124 36 40 C31.05 40 26.1 40 21 40 C20.50628906 38.78441406 20.01257813 37.56882813 19.50390625 36.31640625 C18.85690291 34.7317169 18.2097603 33.14708441 17.5625 31.5625 C17.07426758 30.35883789 17.07426758 30.35883789 16.57617188 29.13085938 C16.26357422 28.36708984 15.95097656 27.60332031 15.62890625 26.81640625 C15.34088135 26.10943604 15.05285645 25.40246582 14.75610352 24.67407227 C14.11946155 23.00167233 14.11946155 23.00167233 13 22 C12.67 27.94 12.34 33.88 12 40 C8.04 40 4.08 40 0 40 C0 26.8 0 13.6 0 0 Z " fill="#020202" transform="translate(425,69)"/>
<path d="M0 0 C9.57 0 19.14 0 29 0 C29 2.64 29 5.28 29 8 C23.72 8 18.44 8 13 8 C13 10.64 13 13.28 13 16 C17.62 16 22.24 16 27 16 C27 18.64 27 21.28 27 24 C22.38 24 17.76 24 13 24 C13 26.97 13 29.94 13 33 C17.95 33 22.9 33 28 33 C28 35.64 28 38.28 28 41 C18.76 41 9.52 41 0 41 C0 27.47 0 13.94 0 0 Z " fill="#0A0A0A" transform="translate(161,68)"/>
<path d="M0 0 C9.57 0 19.14 0 29 0 C29 2.64 29 5.28 29 8 C23.72 8 18.44 8 13 8 C13 10.64 13 13.28 13 16 C17.62 16 22.24 16 27 16 C27 18.64 27 21.28 27 24 C22.38 24 17.76 24 13 24 C13 26.97 13 29.94 13 33 C17.95 33 22.9 33 28 33 C28 35.64 28 38.28 28 41 C18.76 41 9.52 41 0 41 C0 27.47 0 13.94 0 0 Z " fill="#0A0A0A" transform="translate(5,68)"/>
<path d="M0 0 C0 2.97 0 5.94 0 9 C-1.32 8.67 -2.64 8.34 -4 8 C-8.44954472 6.99867615 -12.4517307 6.83460839 -17 7 C-17.33 8.32 -17.66 9.64 -18 11 C-17.3709375 11.15855469 -16.741875 11.31710938 -16.09375 11.48046875 C-8.98506923 13.41822661 -2.22204507 15.66693239 2 22 C2.60695266 26.20925614 2.43802698 29.93951362 0.8125 33.875 C-1.71319094 36.83615489 -4.56843843 38.28421921 -8 40 C-15.55388175 40.50947062 -22.3143213 40.82038783 -29 37 C-29 34.03 -29 31.06 -29 28 C-27.906875 28.33 -26.81375 28.66 -25.6875 29 C-20.47109568 30.32985532 -15.34751531 30.17693984 -10 30 C-10.01436772 28.04984223 -10.01436772 28.04984223 -11 26 C-13.83231503 24.58748627 -13.83231503 24.58748627 -17.25 23.5625 C-22.42280499 21.71912103 -25.73608359 20.42960084 -29 16 C-30.23534045 12.29397865 -30.45528745 9.90246386 -30 6 C-23.48254588 -4.43617654 -10.73355343 -4.08897274 0 0 Z " fill="#070707" transform="translate(494,70)"/>
<path d="M0 0 C9.57 0 19.14 0 29 0 C29 2.64 29 5.28 29 8 C23.72 8 18.44 8 13 8 C13 10.97 13 13.94 13 17 C17.62 17 22.24 17 27 17 C27 19.31 27 21.62 27 24 C22.38 24 17.76 24 13 24 C13 26.97 13 29.94 13 33 C18.28 33 23.56 33 29 33 C29 35.64 29 38.28 29 41 C19.43 41 9.86 41 0 41 C0 27.47 0 13.94 0 0 Z " fill="#0A0A0A" transform="translate(69,68)"/>
<path d="M0 0 C10.23 0 20.46 0 31 0 C31 2.97 31 5.94 31 9 C28.03 9 25.06 9 22 9 C22 19.23 22 29.46 22 40 C17.71 40 13.42 40 9 40 C9 29.77 9 19.54 9 9 C6.03 9 3.06 9 0 9 C0 6.03 0 3.06 0 0 Z " fill="#030303" transform="translate(242,69)"/>
<path d="M0 0 C1.19580867 2.84230571 2.19788421 5.59562125 3.13671875 8.5234375 C3.42102249 9.38055328 3.70532623 10.23766907 3.99824524 11.12075806 C4.59796529 12.93640305 5.19190037 14.75396742 5.78051758 16.57324219 C6.6827922 19.36045714 7.60244012 22.14144659 8.52539062 24.921875 C9.10519735 26.68455714 9.68400681 28.44756769 10.26171875 30.2109375 C10.53666672 31.04539398 10.81161469 31.87985046 11.09489441 32.73959351 C11.34548111 33.51694855 11.59606781 34.29430359 11.85424805 35.09521484 C12.07614304 35.77836761 12.29803802 36.46152039 12.5266571 37.16537476 C13 39 13 39 13 42 C11.3767313 42.6708712 9.75132422 43.33657029 8.125 44 C7.22007813 44.37125 6.31515625 44.7425 5.3828125 45.125 C3 46 3 46 1 46 C0.74831055 45.1843457 0.49662109 44.36869141 0.23730469 43.52832031 C-0.71589404 40.44156402 -1.67030704 37.3551863 -2.62548828 34.26904297 C-3.03513904 32.94464431 -3.44433442 31.6201047 -3.85302734 30.29541016 C-6.22210916 22.61772241 -8.64506993 14.9693334 -11.29199219 7.38183594 C-12 5 -12 5 -12 2 C-10.56656 1.46809459 -9.12804633 0.94984742 -7.6875 0.4375 C-6.48673828 0.00244141 -6.48673828 0.00244141 -5.26171875 -0.44140625 C-3 -1 -3 -1 0 0 Z " fill="#080808" transform="translate(50,67)"/>
<path d="M0 0 C3.73606175 0.7783462 4.73056583 1.56870071 7 4.625 C7.42806075 7.59780809 7.60551118 10.09978876 7.5625 13.0625 C7.58634766 13.81337891 7.61019531 14.56425781 7.63476562 15.33789062 C7.62356688 19.58221675 7.33228239 21.19965664 4.62890625 24.66015625 C2 26.625 2 26.625 -0.625 26.625 C-3.11200654 25.57783935 -4.3635682 24.75236134 -6 22.625 C-7.85910098 17.04769706 -8.08060488 10.08293561 -6.31640625 4.4375 C-4.6225436 1.51365411 -3.28448019 0.68426671 0 0 Z " fill="#F8F8F8" transform="translate(355,75.375)"/>
<path d="M0 0 C6.34507042 0.59859155 6.34507042 0.59859155 8.9375 2.1875 C10.58089191 4.99093325 10.5193873 6.8187528 10 10 C7.8125 12.375 7.8125 12.375 5 14 C3.35 14 1.7 14 0 14 C0 9.38 0 4.76 0 0 Z " fill="#F4F4F4" transform="translate(396,75)"/>
</svg>
